# xmcd
#
# Track frame offsets: 
#        150
#        29904
#        38209
#        68316
#        88667
#        129219
#        148431
#        167720
#        201783
#        224814
#
# Disc length: 3331 seconds
#
# Revision: 1
# Processed by: cddbd v1.5.2PL0 Copyright (c) Steve Scherf et al.
# Submitted via: ExactAudioCopy v0.99pb4
#
DISCID=990d010a
DTITLE=Konntinent - Degrees, Integers
DYEAR=2009
DGENRE=Ambient
TTITLE0=Nassau Tree
TTITLE1=Broken Sleep In An Empty Room
TTITLE2=The Partisan
TTITLE3=My Shoulders Are As Wide As Your Hope Is Heavy
TTITLE4=Call Gignas
TTITLE5=Syckl Cell
TTITLE6=Grasp Of Math [Integers Edit]
TTITLE7=This Searing Heat
TTITLE8=It Was Almost Effortless
TTITLE9=Primary Tertiary
EXTD=YEAR: 2009
EXTT0=
EXTT1=
EXTT2=
EXTT3=
EXTT4=
EXTT5=
EXTT6=
EXTT7=
EXTT8=
EXTT9=
PLAYORDER=
